<svg width="1280" height="1280" viewBox="0 0 1280 1280" fill="none" xmlns="http://www.w3.org/2000/svg">
<path d="M10.7839 557.562L110.648 282.498H190.364L284.534 557.562H130.358V499.308H190.364L150.506 375.792L85.2439 557.562H10.7839ZM515.398 558H441.376V556.686H440.062V342.066H373.924L373.048 558H299.026V284.688H515.836L515.398 558ZM602.751 462.516V498.87H670.203V450.69H628.593V393.312H744.225V498.432H745.101L744.225 501.06V558H528.291V284.688H745.101L723.639 343.38H602.751V379.734H602.313V462.516H602.751ZM874.065 424.848L987.069 558H899.907L831.579 483.978V484.416V558H757.995V470.838L757.557 470.4L757.995 469.962V284.688H832.017L831.579 362.652L885.453 284.25H973.929L971.739 286.878H973.053L874.065 424.848ZM997.923 557.562L1097.79 282.498H1177.5L1271.67 557.562H1117.5V499.308H1177.5L1137.65 375.792L1072.38 557.562H997.923Z" fill="white"/>
<path d="M559.844 975L513.416 932.076V870.756H598.826V899.664L611.528 912.804H671.972L685.112 899.664V840.096L671.972 826.956H516.044V652.194H757.82V717.018H603.644V769.578H727.16L773.15 812.502V932.076L727.16 975H559.844Z" fill="#FF0000"/>
</svg>
