<svg width="1612" height="512" viewBox="0 0 1612 512" fill="none" xmlns="http://www.w3.org/2000/svg">
<path d="M10.7839 365.562L110.648 90.498H190.364L284.534 365.562H130.358V307.308H190.364L150.506 183.792L85.2439 365.562H10.7839ZM515.398 366H441.376V364.686H440.062V150.066H373.924L373.048 366H299.026V92.688H515.836L515.398 366ZM602.751 270.516V306.87H670.203V258.69H628.593V201.312H744.225V306.432H745.101L744.225 309.06V366H528.291V92.688H745.101L723.639 151.38H602.751V187.734H602.313V270.516H602.751ZM874.065 232.848L987.069 366H899.907L831.579 291.978V292.416V366H757.995V278.838L757.557 278.4L757.995 277.962V92.688H832.017L831.579 170.652L885.453 92.25H973.929L971.739 94.878H973.053L874.065 232.848ZM997.923 365.562L1097.79 90.498H1177.5L1271.67 365.562H1117.5V307.308H1177.5L1137.65 183.792L1072.38 365.562H997.923Z" fill="white"/>
<path d="M10.7839 365.562L6.08407 363.856L3.6493 370.562H10.7839V365.562ZM110.648 90.498V85.498H107.144L105.948 88.7917L110.648 90.498ZM190.364 90.498L195.094 88.8785L193.937 85.498H190.364V90.498ZM284.534 365.562V370.562H291.531L289.264 363.942L284.534 365.562ZM130.358 365.562H125.358V370.562H130.358V365.562ZM130.358 307.308V302.308H125.358V307.308H130.358ZM190.364 307.308V312.308H197.231L195.122 305.772L190.364 307.308ZM150.506 183.792L155.264 182.256L150.758 168.293L145.8 182.102L150.506 183.792ZM85.2439 365.562V370.562H88.7612L89.9498 367.252L85.2439 365.562ZM15.4838 367.268L115.348 92.2043L105.948 88.7917L6.08407 363.856L15.4838 367.268ZM110.648 95.498H190.364V85.498H110.648V95.498ZM185.633 92.1175L279.803 367.182L289.264 363.942L195.094 88.8785L185.633 92.1175ZM284.534 360.562H130.358V370.562H284.534V360.562ZM135.358 365.562V307.308H125.358V365.562H135.358ZM130.358 312.308H190.364V302.308H130.358V312.308ZM195.122 305.772L155.264 182.256L145.748 185.328L185.606 308.844L195.122 305.772ZM145.8 182.102L80.538 363.872L89.9498 367.252L155.212 185.482L145.8 182.102ZM85.2439 360.562H10.7839V370.562H85.2439V360.562ZM515.398 366V371H520.39L520.398 366.008L515.398 366ZM441.376 366H436.376V371H441.376V366ZM441.376 364.686H446.376V359.686H441.376V364.686ZM440.062 364.686H435.062V369.686H440.062V364.686ZM440.062 150.066H445.062V145.066H440.062V150.066ZM373.924 150.066V145.066H368.944L368.924 150.046L373.924 150.066ZM373.048 366V371H378.027L378.048 366.02L373.048 366ZM299.026 366H294.026V371H299.026V366ZM299.026 92.688V87.688H294.026V92.688H299.026ZM515.836 92.688L520.836 92.696L520.844 87.688H515.836V92.688ZM515.398 361H441.376V371H515.398V361ZM446.376 366V364.686H436.376V366H446.376ZM441.376 359.686H440.062V369.686H441.376V359.686ZM445.062 364.686V150.066H435.062V364.686H445.062ZM440.062 145.066H373.924V155.066H440.062V145.066ZM368.924 150.046L368.048 365.98L378.048 366.02L378.924 150.086L368.924 150.046ZM373.048 361H299.026V371H373.048V361ZM304.026 366V92.688H294.026V366H304.026ZM299.026 97.688H515.836V87.688H299.026V97.688ZM510.836 92.68L510.398 365.992L520.398 366.008L520.836 92.696L510.836 92.68ZM602.751 270.516H607.751V265.516H602.751V270.516ZM602.751 306.87H597.751V311.87H602.751V306.87ZM670.203 306.87V311.87H675.203V306.87H670.203ZM670.203 258.69H675.203V253.69H670.203V258.69ZM628.593 258.69H623.593V263.69H628.593V258.69ZM628.593 201.312V196.312H623.593V201.312H628.593ZM744.225 201.312H749.225V196.312H744.225V201.312ZM744.225 306.432H739.225V311.432H744.225V306.432ZM745.101 306.432L749.845 308.013L752.038 301.432H745.101V306.432ZM744.225 309.06L739.482 307.479L739.225 308.249V309.06H744.225ZM744.225 366V371H749.225V366H744.225ZM528.291 366H523.291V371H528.291V366ZM528.291 92.688V87.688H523.291V92.688H528.291ZM745.101 92.688L749.797 94.4051L752.253 87.688H745.101V92.688ZM723.639 151.38V156.38H727.135L728.335 153.097L723.639 151.38ZM602.751 151.38V146.38H597.751V151.38H602.751ZM602.751 187.734V192.734H607.751V187.734H602.751ZM602.313 187.734V182.734H597.313V187.734H602.313ZM602.313 270.516H597.313V275.516H602.313V270.516ZM597.751 270.516V306.87H607.751V270.516H597.751ZM602.751 311.87H670.203V301.87H602.751V311.87ZM675.203 306.87V258.69H665.203V306.87H675.203ZM670.203 253.69H628.593V263.69H670.203V253.69ZM633.593 258.69V201.312H623.593V258.69H633.593ZM628.593 206.312H744.225V196.312H628.593V206.312ZM739.225 201.312V306.432H749.225V201.312H739.225ZM744.225 311.432H745.101V301.432H744.225V311.432ZM740.358 304.851L739.482 307.479L748.969 310.641L749.845 308.013L740.358 304.851ZM739.225 309.06V366H749.225V309.06H739.225ZM744.225 361H528.291V371H744.225V361ZM533.291 366V92.688H523.291V366H533.291ZM528.291 97.688H745.101V87.688H528.291V97.688ZM740.405 90.9708L718.943 149.663L728.335 153.097L749.797 94.4051L740.405 90.9708ZM723.639 146.38H602.751V156.38H723.639V146.38ZM597.751 151.38V187.734H607.751V151.38H597.751ZM602.751 182.734H602.313V192.734H602.751V182.734ZM597.313 187.734V270.516H607.313V187.734H597.313ZM602.313 275.516H602.751V265.516H602.313V275.516ZM874.065 232.848L870.002 229.933L867.726 233.106L870.253 236.083L874.065 232.848ZM987.069 366V371H997.87L990.881 362.765L987.069 366ZM899.907 366L896.233 369.391L897.718 371H899.907V366ZM831.579 291.978L835.253 288.587L826.579 279.19V291.978H831.579ZM831.579 366V371H836.579V366H831.579ZM757.995 366H752.995V371H757.995V366ZM757.995 278.838H762.995V276.767L761.53 275.302L757.995 278.838ZM757.557 278.4L754.021 274.864L750.486 278.4L754.021 281.936L757.557 278.4ZM757.995 277.962L761.53 281.498L762.995 280.033V277.962H757.995ZM757.995 92.688V87.688H752.995V92.688H757.995ZM832.017 92.688L837.017 92.7161L837.045 87.688H832.017V92.688ZM831.579 170.652L826.579 170.624L826.488 186.89L835.7 173.484L831.579 170.652ZM885.453 92.25V87.25H882.822L881.332 89.4183L885.453 92.25ZM973.929 92.25L977.77 95.4509L984.604 87.25H973.929V92.25ZM971.739 94.878L967.898 91.6771L961.064 99.878H971.739V94.878ZM973.053 94.878L977.115 97.7927L982.794 89.878H973.053V94.878ZM870.253 236.083L983.257 369.235L990.881 362.765L877.877 229.613L870.253 236.083ZM987.069 361H899.907V371H987.069V361ZM903.581 362.609L835.253 288.587L827.905 295.369L896.233 369.391L903.581 362.609ZM826.579 291.978V292.416H836.579V291.978H826.579ZM826.579 292.416V366H836.579V292.416H826.579ZM831.579 361H757.995V371H831.579V361ZM762.995 366V278.838H752.995V366H762.995ZM761.53 275.302L761.092 274.864L754.021 281.936L754.459 282.374L761.53 275.302ZM761.092 281.936L761.53 281.498L754.459 274.426L754.021 274.864L761.092 281.936ZM762.995 277.962V92.688H752.995V277.962H762.995ZM757.995 97.688H832.017V87.688H757.995V97.688ZM827.017 92.6599L826.579 170.624L836.579 170.68L837.017 92.7161L827.017 92.6599ZM835.7 173.484L889.574 95.0817L881.332 89.4183L827.458 167.82L835.7 173.484ZM885.453 97.25H973.929V87.25H885.453V97.25ZM970.088 89.0491L967.898 91.6771L975.58 98.0789L977.77 95.4509L970.088 89.0491ZM971.739 99.878H973.053V89.878H971.739V99.878ZM968.99 91.9633L870.002 229.933L878.127 235.763L977.115 97.7927L968.99 91.9633ZM997.923 365.562L993.223 363.856L990.788 370.562H997.923V365.562ZM1097.79 90.498V85.498H1094.28L1093.09 88.7917L1097.79 90.498ZM1177.5 90.498L1182.23 88.8785L1181.08 85.498H1177.5V90.498ZM1271.67 365.562V370.562H1278.67L1276.4 363.942L1271.67 365.562ZM1117.5 365.562H1112.5V370.562H1117.5V365.562ZM1117.5 307.308V302.308H1112.5V307.308H1117.5ZM1177.5 307.308V312.308H1184.37L1182.26 305.772L1177.5 307.308ZM1137.65 183.792L1142.4 182.256L1137.9 168.293L1132.94 182.102L1137.65 183.792ZM1072.38 365.562V370.562H1075.9L1077.09 367.252L1072.38 365.562ZM1002.62 367.268L1102.49 92.2043L1093.09 88.7917L993.223 363.856L1002.62 367.268ZM1097.79 95.498H1177.5V85.498H1097.79V95.498ZM1172.77 92.1175L1266.94 367.182L1276.4 363.942L1182.23 88.8785L1172.77 92.1175ZM1271.67 360.562H1117.5V370.562H1271.67V360.562ZM1122.5 365.562V307.308H1112.5V365.562H1122.5ZM1117.5 312.308H1177.5V302.308H1117.5V312.308ZM1182.26 305.772L1142.4 182.256L1132.89 185.328L1172.74 308.844L1182.26 305.772ZM1132.94 182.102L1067.68 363.872L1077.09 367.252L1142.35 185.482L1132.94 182.102ZM1072.38 360.562H997.923V370.562H1072.38V360.562Z" fill="black"/>
<path d="M1375.84 431L1329.42 388.076V326.756H1414.83V355.664L1427.53 368.804H1487.97L1501.11 355.664V296.096L1487.97 282.956H1332.04V108.194H1573.82V173.018H1419.64V225.578H1543.16L1589.15 268.502V388.076L1543.16 431H1375.84Z" fill="#FF0000"/>
<path d="M1375.84 431L1372.45 434.671L1373.89 436H1375.84V431ZM1329.42 388.076H1324.42V390.263L1326.02 391.747L1329.42 388.076ZM1329.42 326.756V321.756H1324.42V326.756H1329.42ZM1414.83 326.756H1419.83V321.756H1414.83V326.756ZM1414.83 355.664H1409.83V357.686L1411.23 359.139L1414.83 355.664ZM1427.53 368.804L1423.93 372.279L1425.41 373.804H1427.53V368.804ZM1487.97 368.804V373.804H1490.04L1491.51 372.34L1487.97 368.804ZM1501.11 355.664L1504.65 359.2L1506.11 357.735V355.664H1501.11ZM1501.11 296.096H1506.11V294.025L1504.65 292.56L1501.11 296.096ZM1487.97 282.956L1491.51 279.42L1490.04 277.956H1487.97V282.956ZM1332.04 282.956H1327.04V287.956H1332.04V282.956ZM1332.04 108.194V103.194H1327.04V108.194H1332.04ZM1573.82 108.194H1578.82V103.194H1573.82V108.194ZM1573.82 173.018V178.018H1578.82V173.018H1573.82ZM1419.64 173.018V168.018H1414.64V173.018H1419.64ZM1419.64 225.578H1414.64V230.578H1419.64V225.578ZM1543.16 225.578L1546.57 221.923L1545.13 220.578H1543.16V225.578ZM1589.15 268.502H1594.15V266.329L1592.56 264.847L1589.15 268.502ZM1589.15 388.076L1592.56 391.731L1594.15 390.249V388.076H1589.15ZM1543.16 431V436H1545.13L1546.57 434.655L1543.16 431ZM1379.24 427.329L1332.81 384.405L1326.02 391.747L1372.45 434.671L1379.24 427.329ZM1334.42 388.076V326.756H1324.42V388.076H1334.42ZM1329.42 331.756H1414.83V321.756H1329.42V331.756ZM1409.83 326.756V355.664H1419.83V326.756H1409.83ZM1411.23 359.139L1423.93 372.279L1431.12 365.329L1418.42 352.189L1411.23 359.139ZM1427.53 373.804H1487.97V363.804H1427.53V373.804ZM1491.51 372.34L1504.65 359.2L1497.58 352.128L1484.44 365.268L1491.51 372.34ZM1506.11 355.664V296.096H1496.11V355.664H1506.11ZM1504.65 292.56L1491.51 279.42L1484.44 286.492L1497.58 299.632L1504.65 292.56ZM1487.97 277.956H1332.04V287.956H1487.97V277.956ZM1337.04 282.956V108.194H1327.04V282.956H1337.04ZM1332.04 113.194H1573.82V103.194H1332.04V113.194ZM1568.82 108.194V173.018H1578.82V108.194H1568.82ZM1573.82 168.018H1419.64V178.018H1573.82V168.018ZM1414.64 173.018V225.578H1424.64V173.018H1414.64ZM1419.64 230.578H1543.16V220.578H1419.64V230.578ZM1539.75 229.233L1585.74 272.157L1592.56 264.847L1546.57 221.923L1539.75 229.233ZM1584.15 268.502V388.076H1594.15V268.502H1584.15ZM1585.74 384.421L1539.75 427.345L1546.57 434.655L1592.56 391.731L1585.74 384.421ZM1543.16 426H1375.84V436H1543.16V426Z" fill="black"/>
</svg>
